<svg width="90" height="24" viewBox="0 0 90 24" fill="none" xmlns="http://www.w3.org/2000/svg">
<g clip-path="url(#clip0_8_409)">
<path d="M89.4643 14.2351V10.5806C89.3462 10.7786 87.0255 14.024 80.2517 18.225V22.0888C80.6927 21.8783 81.3356 21.5092 82.3545 20.8965C83.2399 20.2815 87.8099 17.0002 89.4643 14.2351Z" fill="white"/>
<path d="M25.59 23.7888H30.4641V0H26.4736C25.0805 0.068457 23.279 0.54081 22.1318 3.32245L15.4737 17.7817H15.4093L8.74614 3.32245C7.60119 0.54081 5.79735 0.068457 4.40653 0H0.413208V23.7888H5.28792V6.32143L11.9368 20.4937L12.9928 22.8241C13.4337 23.7888 14.5661 23.7888 14.5661 23.7888H16.3112C16.3112 23.7888 17.4436 23.7888 17.884 22.8224L18.94 20.492L25.59 6.32143V23.7888ZM47.9446 12.2293H36.344C36.5524 11.3595 36.8643 10.6559 37.2796 10.1185C37.6636 9.61061 38.1392 9.17896 38.6818 8.84578C39.1947 8.53798 39.7584 8.3243 40.3465 8.21484C40.9104 8.10465 41.4833 8.04735 42.0579 8.0437C43.6042 8.0437 44.8912 8.36183 45.9188 8.9981C46.9465 9.63437 47.6217 10.7109 47.9446 12.2276V12.2293ZM52.3618 14.3298C52.4016 14.0235 52.4089 13.7139 52.3835 13.4062C52.2884 12.5989 52.1175 11.8024 51.8729 11.0273C51.445 9.71138 50.8044 8.58945 49.951 7.66148C49.0975 6.7335 48.0258 6.01357 46.7358 5.50166C45.4427 4.98823 43.919 4.7203 42.1646 4.69786C40.4558 4.69786 38.9553 4.95457 37.6629 5.468C36.3706 5.98143 35.2915 6.67893 34.4255 7.5605C33.5697 8.42623 32.9084 9.4646 32.4859 10.6063C32.0566 11.7689 31.8398 12.9992 31.8458 14.2385C31.8458 15.6457 32.0881 16.9399 32.5726 18.1211C33.0392 19.2778 33.7544 20.3177 34.6674 21.1675C35.5801 22.016 36.6941 22.6798 38.0092 23.159C39.3244 23.6382 40.8135 23.878 42.4766 23.8784C44.2082 23.8784 45.6682 23.6331 46.8567 23.1425C48.0452 22.6518 49.0205 22.0827 49.7827 21.435C50.5433 20.7885 51.1138 20.1302 51.4941 19.46C51.8744 18.7899 52.0996 18.2655 52.1695 17.8867H48.8248C48.1814 17.9066 47.9805 17.9836 47.7946 18.0783C47.5865 18.1859 47.3973 18.3265 47.2344 18.4948C47.0034 18.7213 46.7608 18.9358 46.5076 19.1371C46.249 19.3644 45.9702 19.5676 45.6747 19.7441C44.8095 20.269 43.6957 20.5312 42.3334 20.5308C41.0171 20.4871 39.961 20.2473 39.165 19.8114C38.369 19.3756 37.763 18.8846 37.3469 18.3385C36.9308 17.792 36.6481 17.2453 36.4986 16.6984C36.379 16.2854 36.2807 15.8664 36.2042 15.4433H50.9002C50.9392 15.4379 50.9784 15.4347 51.0178 15.4336C51.7103 15.4034 52.2089 15.226 52.3618 14.3315V14.3298ZM58.3021 15.6167V9.33183H62.1112C63.0297 9.33183 63.4891 8.86423 63.4895 7.92903V5.56555H58.3021V1.47867C58.3021 0.544994 57.8564 0.0777747 56.965 0.0770141H53.845V15.6167C53.845 16.9794 53.9329 18.1748 54.1086 19.2028C54.2843 20.2307 54.6287 21.0855 55.1417 21.767C55.6548 22.4482 56.3842 22.9555 57.3301 23.2891C58.2759 23.6226 59.5321 23.7898 61.0986 23.7905H63.8135V21.4265C63.8135 20.492 63.3543 20.0246 62.4358 20.0242C61.49 20.0242 60.747 19.9908 60.207 19.9238C59.6669 19.8569 59.2548 19.6766 58.9707 19.383C58.687 19.0894 58.5049 18.6486 58.4242 18.0607C58.3436 17.4727 58.3029 16.6581 58.3021 15.6167Z" fill="white"/>
<path d="M84.5543 13.866V11.3079C84.5487 10.6072 84.4915 9.9078 84.3832 9.21545C84.2691 8.44606 83.9228 7.72099 83.3443 7.04023C82.7659 6.35946 81.8584 5.7848 80.622 5.31625C79.3871 4.84732 77.65 4.61285 75.4107 4.61285C74.4723 4.61731 73.5352 4.68439 72.6057 4.81366C71.6237 4.94488 70.6666 5.22135 69.7659 5.634C68.8618 6.04981 68.0497 6.64149 67.3767 7.37452C66.6853 8.12489 66.2133 9.11238 65.9608 10.337H70.4282C70.5103 10.0613 70.6266 9.79705 70.7745 9.55031C70.9361 9.27154 71.1959 9.01483 71.5537 8.78017C71.9116 8.54552 72.402 8.35023 73.025 8.1943C73.6483 8.03875 74.4563 7.96078 75.4489 7.9604C77.2265 7.9604 78.4732 8.17794 79.189 8.61302C79.9047 9.04811 80.2626 9.61155 80.2626 10.3033V11.1071C79.2692 11.1741 78.1956 11.252 77.0417 11.341C75.8917 11.43 74.7474 11.581 73.6137 11.7934C72.5086 11.9988 71.4161 12.267 70.3415 12.5967C69.2907 12.9207 68.3673 13.3445 67.5713 13.8682C66.8078 14.3605 66.1536 15.0044 65.6493 15.7599C65.1644 16.4958 64.9222 17.366 64.9225 18.3704C64.9225 19.487 65.1821 20.3966 65.7012 21.099C66.2042 21.7862 66.8552 22.3516 67.6061 22.7534C68.3423 23.1504 69.1373 23.4271 69.961 23.5732C70.6774 23.7085 71.4013 23.8003 72.1288 23.8481C73.0153 23.8932 73.1585 23.8921 74.3936 23.7911C76.9658 23.5441 78.6972 22.9108 80.2506 22.107C80.2783 22.3783 80.3692 22.6393 80.5159 22.8692C80.7874 23.4231 81.4452 23.7369 82.1309 23.7871H84.548V19.8634H84.5543V19.8502L84.5429 19.8594V18.6095L80.2324 18.2552C79.8228 18.4959 79.3588 18.7469 78.8404 19.0082C78.2722 19.292 77.6884 19.5436 77.0919 19.7618C76.4255 20.005 75.7426 20.2006 75.0485 20.3471C74.2915 20.5065 73.5196 20.5851 72.746 20.5816C71.6838 20.5816 70.8931 20.3585 70.374 19.9124C69.8549 19.4663 69.6077 18.8525 69.6324 18.0709C69.6552 17.2905 69.9842 16.6658 70.6193 16.1969C71.2544 15.728 72.2412 15.3374 73.5795 15.0252C74.5953 14.7799 75.6517 14.5791 76.7485 14.4227C77.914 14.2608 79.0871 14.1601 80.2632 14.121V17.4366C81.97 16.3983 83.4008 15.1199 84.5571 13.8677" fill="white"/>
<path d="M89.4643 14.2351V10.5806C89.4038 10.6816 88.7683 11.5766 87.2634 12.9863V16.8798C88.1476 16.0121 88.948 15.0982 89.4643 14.2351Z" fill="white"/>
<path d="M84.5531 15.2682C83.3762 16.1718 81.954 17.1684 80.2488 18.2267V22.0888C80.6898 21.8783 81.3327 21.5086 82.3516 20.8965C82.6848 20.6683 83.5336 20.0613 84.5536 19.249L84.5531 15.2682Z" fill="white"/>
</g>
<defs>
<clipPath id="clip0_8_409">
<rect width="89.0483" height="23.8789" fill="white" transform="translate(0.413208)"/>
</clipPath>
</defs>
</svg>
